<svg width="32" height="32" viewBox="0 0 32 32" fill="none" xmlns="http://www.w3.org/2000/svg">
<g id="Group 93">
<rect id="Rectangle 68" x="0.325" y="0.325" width="30.7789" height="30.7789" rx="3.675" fill="#252525" stroke="#444444" stroke-width="0.65"/>
<path id="Vector" d="M23.5711 15.724C23.5628 20.1023 20.0354 23.6082 15.6213 23.5714C11.3046 23.5351 7.85317 20.0275 7.85666 15.7038C7.86015 11.3553 11.3963 7.84415 15.7457 7.85728C20.0585 7.86996 23.5794 11.4095 23.5711 15.724ZM18.6869 13.6282C16.7049 13.6282 14.7211 13.6282 12.7247 13.6282C12.5183 15.0235 12.5183 16.4118 12.7247 17.807C14.7207 17.807 16.7049 17.807 18.6864 17.807C18.9078 17.1048 18.9078 14.3304 18.6869 13.6282ZM18.476 12.5668C18.4712 12.5331 18.4699 12.5055 18.4633 12.4797C18.2608 11.6948 17.9814 10.9405 17.5479 10.2505C17.2724 9.81213 16.9472 9.41749 16.4984 9.14403C15.9937 8.83645 15.476 8.81283 14.9682 9.1261C14.7617 9.25385 14.5662 9.41049 14.3963 9.58375C13.8794 10.111 13.5507 10.7581 13.2931 11.4406C13.1556 11.8051 13.0478 12.1809 12.9221 12.5663C14.7958 12.5668 16.6333 12.5668 18.476 12.5668ZM18.4878 18.8711C16.6254 18.8711 14.7897 18.8711 12.9374 18.8711C13.2194 19.9303 13.5839 20.9353 14.3147 21.7618C14.4893 21.9596 14.6993 22.1363 14.9211 22.2803C15.4476 22.6228 15.9941 22.6176 16.5185 22.272C16.7258 22.1354 16.9236 21.9709 17.089 21.7863C17.8338 20.9554 18.2027 19.9408 18.4878 18.8711ZM9.24536 13.6265C8.79308 14.8857 8.78785 16.5264 9.24318 17.8044C10.0473 17.8044 10.8519 17.8044 11.6338 17.8044C11.5962 17.1009 11.5303 16.4052 11.5303 15.71C11.5303 15.0169 11.5971 14.3234 11.6347 13.6269C10.8436 13.6265 10.0434 13.6265 9.24536 13.6265ZM22.1863 13.633C21.3734 13.633 20.5702 13.633 19.7914 13.633C19.8293 14.3339 19.8957 15.0244 19.8953 15.7148C19.8948 16.4096 19.8285 17.1044 19.7905 17.8057C20.578 17.8057 21.3822 17.8057 22.1841 17.8057C22.6281 16.6594 22.6294 14.8052 22.1863 13.633ZM21.7506 12.5733C20.9482 11.1011 19.804 10.0567 18.2787 9.4328C18.2843 9.47743 18.3018 9.51068 18.3219 9.54174C18.8999 10.433 19.305 11.3973 19.5329 12.4342C19.5595 12.555 19.6076 12.5768 19.7171 12.5755C20.2026 12.5703 20.6876 12.5733 21.1731 12.5733C21.356 12.5733 21.5389 12.5733 21.7506 12.5733ZM21.7454 18.8698C21.7017 18.8654 21.6821 18.8619 21.6624 18.8619C21.0028 18.8615 20.3427 18.8636 19.6831 18.8593C19.5849 18.8588 19.5569 18.8956 19.5373 18.9861C19.3059 20.034 18.899 21.0084 18.3118 21.9075C18.2939 21.9346 18.2843 21.9674 18.2551 22.0326C19.8053 21.3737 20.9504 20.332 21.7454 18.8698ZM13.1604 21.9889C13.1417 21.9565 13.1242 21.9237 13.1037 21.8922C12.5252 21.0014 12.1201 20.0366 11.8927 18.9997C11.866 18.8776 11.8163 18.8579 11.708 18.8593C11.2339 18.8641 10.7594 18.8614 10.2848 18.8614C10.0914 18.8614 9.89758 18.8614 9.67625 18.8614C10.4752 20.3328 11.6211 21.3737 13.1604 21.9889ZM13.1609 9.40567C11.6207 10.062 10.4738 11.102 9.68017 12.5646C9.72339 12.569 9.74304 12.5725 9.76268 12.5725C10.4223 12.5729 11.0824 12.5707 11.742 12.5751C11.8403 12.5755 11.8682 12.5392 11.8883 12.4487C12.0289 11.8024 12.2323 11.1759 12.527 10.5835C12.7199 10.195 12.9378 9.8187 13.1609 9.40567Z" fill="white"/>
</g>
</svg>
