<svg width="32" height="32" viewBox="0 0 32 32" fill="none" xmlns="http://www.w3.org/2000/svg">
<g id="Group 95">
<rect id="Rectangle 123" x="0.896625" y="0.325" width="30.7789" height="30.7789" rx="3.675" fill="#252525" stroke="#444444" stroke-width="0.65"/>
<g id="Group">
<path id="Vector" d="M18.3827 24.6939C18.5511 24.6011 18.735 24.528 18.8846 24.4116C19.1166 24.2308 19.241 23.9756 19.2458 23.6781C19.2574 22.925 19.2614 22.1719 19.2682 21.4188C19.269 21.3508 19.2682 21.2824 19.2682 21.1888C19.5177 21.1888 19.7513 21.186 19.9849 21.1892C20.4848 21.196 20.8667 20.9901 21.0923 20.5421C21.1647 20.3985 21.2083 20.2242 21.2087 20.0638C21.2167 17.7237 21.2151 15.384 21.2151 13.044C21.2151 13.022 21.2095 13 21.2055 12.968C17.9672 12.968 14.7336 12.968 11.4873 12.968C11.4845 13.0272 11.4789 13.0828 11.4789 13.1384C11.4785 15.4036 11.4865 17.6689 11.4737 19.9342C11.4701 20.6145 11.9024 21.07 12.3763 21.1548C12.6391 21.202 12.9143 21.1812 13.1838 21.19C13.2574 21.1924 13.331 21.1904 13.4266 21.1904C13.4266 21.2704 13.4266 21.3316 13.4266 21.3932C13.4266 22.0255 13.447 22.659 13.421 23.2901C13.3926 23.9784 13.6186 24.4772 14.3117 24.6939C14.4497 24.6939 14.5876 24.6939 14.7256 24.6939C15.4199 24.4824 15.6503 23.9864 15.6231 23.2977C15.5979 22.6614 15.6179 22.0235 15.6179 21.386C15.6179 21.3256 15.6179 21.2652 15.6179 21.2028C16.117 21.2028 16.5905 21.2028 17.0773 21.2028C17.0773 21.2776 17.0773 21.34 17.0773 21.4028C17.0773 22.1091 17.0781 22.815 17.0769 23.5213C17.0765 23.8568 17.1573 24.1692 17.4224 24.3864C17.5816 24.5168 17.7848 24.5931 17.9684 24.6939C18.1067 24.6939 18.2447 24.6939 18.3827 24.6939Z" fill="white"/>
<path id="Vector_2" d="M14.2136 8.51678C13.9752 8.08004 13.7469 7.6617 13.5185 7.24376C13.4937 7.19857 13.4777 7.13738 13.4393 7.11338C13.3845 7.07898 13.2845 7.03779 13.2545 7.06179C13.2081 7.09978 13.1689 7.20377 13.1889 7.25576C13.2461 7.40454 13.3349 7.54132 13.4113 7.6829C13.5833 8.00085 13.7553 8.31841 13.9324 8.64636C12.4111 9.51064 11.5076 10.7637 11.4372 12.5662C14.7223 12.5662 17.9787 12.5662 21.2666 12.5662C21.1998 10.7597 20.2939 9.51064 18.7626 8.64636C18.9921 8.22322 19.2189 7.80568 19.4453 7.38774C19.4697 7.34255 19.5124 7.29535 19.5112 7.25016C19.5096 7.18577 19.4925 7.09178 19.4493 7.06659C19.4069 7.04219 19.3165 7.07539 19.2609 7.10738C19.2221 7.12978 19.2049 7.19137 19.1801 7.23656C18.9493 7.6593 18.7186 8.08204 18.4814 8.51718C17.0596 7.92766 15.6414 7.92686 14.2136 8.51678ZM18.5918 10.7941C18.3742 10.7965 18.1842 10.6153 18.1766 10.3981C18.169 10.1797 18.3638 9.97698 18.5842 9.97498C18.7977 9.97298 18.9833 10.1605 18.9861 10.3817C18.9893 10.6049 18.8105 10.7917 18.5918 10.7941ZM14.1044 10.7941C13.886 10.7921 13.7065 10.6057 13.7085 10.3829C13.7105 10.1621 13.8956 9.97338 14.1096 9.97498C14.3296 9.97618 14.5256 10.1781 14.5188 10.3969C14.5116 10.6137 14.3216 10.7961 14.1044 10.7941Z" fill="white"/>
<path id="Vector_3" d="M11.0385 16.1044C11.0385 15.3113 11.0541 14.5178 11.0329 13.7251C11.0185 13.1844 10.5406 12.7653 9.98904 12.7569C9.42112 12.7481 8.94719 13.15 8.8912 13.6904C8.8796 13.8043 8.8724 13.9195 8.8724 14.0339C8.8712 15.4537 8.8732 16.8735 8.8708 18.2933C8.87 18.7684 9.03998 19.146 9.47312 19.3732C10.1502 19.7279 11.0037 19.2648 11.0325 18.5009C11.0625 17.703 11.0393 16.9035 11.0393 16.1044C11.0393 16.1044 11.0389 16.1044 11.0385 16.1044Z" fill="white"/>
<path id="Vector_4" d="M21.6567 16.1208C21.6567 16.9195 21.6415 17.7185 21.6619 18.5168C21.6759 19.0584 22.151 19.4779 22.7025 19.4875C23.2652 19.4975 23.7464 19.0912 23.8028 18.5552C23.8152 18.4356 23.8224 18.3149 23.8224 18.1945C23.8236 16.7807 23.8208 15.3665 23.8244 13.9527C23.8256 13.4763 23.6544 13.1004 23.2229 12.8728C22.5477 12.5165 21.7167 12.98 21.6551 13.7419C21.6519 13.7819 21.6459 13.8219 21.6455 13.8623C21.6451 14.6154 21.6451 15.3681 21.6451 16.1212C21.6491 16.1208 21.6527 16.1208 21.6567 16.1208Z" fill="white"/>
</g>
</g>
</svg>
