<svg width="32" height="32" viewBox="0 0 32 32" fill="none" xmlns="http://www.w3.org/2000/svg">
<rect x="0.610568" y="0.325" width="30.7789" height="30.7789" rx="3.675" fill="#252525" stroke="#444444" stroke-width="0.65"/>
<path d="M18.7709 22.8467C18.6137 22.8467 18.4568 22.8467 18.2995 22.8467C17.9014 22.7025 17.4979 22.5709 17.1061 22.4111C16.1797 22.0324 15.2524 22.0252 14.3163 22.3647C13.8705 22.5262 13.424 22.686 12.9778 22.8467C12.7982 22.8467 12.6185 22.8467 12.4389 22.8467C12.4305 22.8395 12.4233 22.8273 12.414 22.826C11.7866 22.7227 11.3029 22.3693 10.8669 21.9341C10.2984 21.3666 9.85018 20.7083 9.45084 20.0176C8.42319 18.2402 7.86193 16.3401 7.99855 14.2687C8.04831 13.5127 8.21699 12.781 8.58132 12.1097C9.09452 11.1634 9.84174 10.455 10.815 9.99453C11.4973 9.67152 12.2192 9.5467 12.961 9.70863C13.4514 9.81573 13.9308 9.97851 14.4103 10.132C14.9104 10.2927 15.4147 10.4474 15.9419 10.3466C16.3134 10.2758 16.6777 10.1556 17.0349 10.0278C17.5599 9.84019 18.0887 9.677 18.6487 9.64833C19.7434 9.59182 20.6812 9.98525 21.5039 10.6777C21.7531 10.8872 21.9707 11.1352 22.2106 11.3734C20.8334 12.2101 20.1473 13.3988 20.2759 14.9725C20.4037 16.5374 21.2437 17.6334 22.6871 18.2613C22.677 18.2942 22.6724 18.3161 22.664 18.3359C22.2267 19.3627 21.6654 20.3191 20.9852 21.2021C20.405 21.9561 19.7737 22.6548 18.7709 22.8467Z" fill="white"/>
<path d="M18.5556 5.6123C18.8584 7.57483 17.108 9.81525 15.1075 9.73597C14.7714 8.17995 16.2165 5.86236 18.5556 5.6123Z" fill="white"/>
</svg>
