<svg width="60" height="47" viewBox="0 0 60 47" fill="none" xmlns="http://www.w3.org/2000/svg">
<g id="Group 122">
<path id="Vector" d="M59.2879 13.9714C58.9616 15.0339 58.6233 16.0928 58.3125 17.1599C56.8445 22.193 55.3838 27.2284 53.9206 32.2626C53.66 33.1578 53.2548 33.4582 52.3056 33.4582C44.7758 33.4582 37.2449 33.4629 29.7151 33.4464C29.2465 33.4452 29.0074 33.5771 28.8113 33.9953C28.2638 35.1661 28.8472 36.1025 30.1681 36.1025C37.5341 36.1037 44.9002 36.1025 52.2662 36.1048C52.4598 36.1048 52.6583 36.099 52.8448 36.139C53.5094 36.2839 53.9589 36.8846 53.9051 37.5277C53.8465 38.2132 53.2835 38.7374 52.5507 38.7433C51.1318 38.7562 49.7116 38.7468 48.2927 38.748C48.1648 38.748 48.0357 38.7586 47.848 38.7668C50.1766 39.4512 51.4784 41.1885 51.1939 43.1709C50.901 45.2133 49.2263 46.6798 47.1869 46.681C45.1667 46.6821 43.5027 45.2428 43.1836 43.2168C42.8692 41.2262 44.1566 39.4865 46.5271 38.7668C42.4353 38.7668 38.4104 38.7668 34.3855 38.7668C35.4649 39.0354 36.3603 39.5784 36.9866 40.4983C37.6238 41.4347 37.821 42.463 37.5867 43.5678C37.1946 45.4089 35.4589 46.7316 33.508 46.6774C31.5548 46.6232 29.9517 45.1827 29.6457 43.2086C29.3373 41.2251 30.5853 39.5407 33.0287 38.7468C31.9911 38.7468 31.0539 38.748 30.1179 38.7468C26.8616 38.7409 24.9383 35.7209 26.411 32.8716C26.7314 32.2508 26.7732 31.7196 26.5771 31.0541C24.5139 24.0529 22.4865 17.041 20.4507 10.0315C20.4185 9.91957 20.3778 9.80885 20.3252 9.65101C20.116 9.65101 19.8949 9.65101 19.6737 9.65101C18.1795 9.65101 16.6841 9.61921 15.1922 9.66279C14.3566 9.68753 13.7434 9.44371 13.3848 8.68162C13.3848 8.44605 13.3848 8.21165 13.3848 7.97608C13.6884 7.39421 14.1056 6.99844 14.8324 7.00198C16.9686 7.01376 19.1047 7.00315 21.2409 7.00787C21.9892 7.00904 22.4459 7.34238 22.6646 8.04439C22.8427 8.6192 22.9993 9.20106 23.1679 9.7794C23.4129 10.618 23.6616 11.4567 23.909 12.2965C24.1373 12.2965 24.3167 12.2965 24.4948 12.2965C35.5056 12.2965 46.5151 12.3024 57.5259 12.2847C58.3507 12.2836 58.9389 12.525 59.2879 13.2671C59.2879 13.5015 59.2879 13.7371 59.2879 13.9714ZM51.5525 30.7997C53.0838 25.5276 54.6151 20.2589 56.1536 14.962C45.6497 14.962 35.184 14.962 24.6765 14.962C26.2149 20.2589 27.7486 25.5358 29.2775 30.7997C36.7332 30.7997 44.1255 30.7997 51.5525 30.7997ZM34.9891 42.7245C34.9939 42.0119 34.3914 41.4064 33.6658 41.3958C32.9414 41.3852 32.3198 41.9742 32.3031 42.6868C32.2864 43.4159 32.908 44.0402 33.6491 44.0378C34.3747 44.0355 34.9844 43.4371 34.9891 42.7245ZM47.1893 44.0366C47.9149 44.0331 48.5234 43.4347 48.527 42.721C48.5306 41.9919 47.897 41.3794 47.1559 41.3947C46.4315 41.41 45.8314 42.0201 45.8409 42.7327C45.8505 43.4453 46.4661 44.0402 47.1893 44.0366Z" fill="white"/>
<circle id="Ellipse 36" cx="17.5054" cy="17.5054" r="17.5054" fill="white" fill-opacity="0.1"/>
</g>
</svg>
